<?xml version="1.0" encoding="UTF-8" standalone="no"?>
<svg
   xmlns:dc="http://purl.org/dc/elements/1.1/"
   xmlns:cc="http://creativecommons.org/ns#"
   xmlns:rdf="http://www.w3.org/1999/02/22-rdf-syntax-ns#"
   xmlns:svg="http://www.w3.org/2000/svg"
   xmlns="http://www.w3.org/2000/svg"
   xmlns:sodipodi="http://sodipodi.sourceforge.net/DTD/sodipodi-0.dtd"
   xmlns:inkscape="http://www.inkscape.org/namespaces/inkscape"
   width="1024"
   height="1024"
   viewBox="0 0 1024 1024"
   version="1.1"
   id="svg8"
   inkscape:version="1.0 (4035a4fb49, 2020-05-01)"
   sodipodi:docname="appIcon.svg"
   inkscape:export-filename="C:\Users\ashley\projects\assets\WatchedClock\appIcons\iosIcon.png"
   inkscape:export-xdpi="96"
   inkscape:export-ydpi="96">
  <defs
     id="defs2" />
  <sodipodi:namedview
     id="base"
     pagecolor="#ffffff"
     bordercolor="#666666"
     borderopacity="1.0"
     inkscape:pageopacity="0.0"
     inkscape:pageshadow="2"
     inkscape:zoom="0.5"
     inkscape:cx="359.5939"
     inkscape:cy="414.42929"
     inkscape:document-units="px"
     inkscape:current-layer="layer3"
     inkscape:document-rotation="0"
     showgrid="false"
     inkscape:window-width="1920"
     inkscape:window-height="1017"
     inkscape:window-x="1072"
     inkscape:window-y="302"
     inkscape:window-maximized="1"
     units="px" />
  <metadata
     id="metadata5">
    <rdf:RDF>
      <cc:Work
         rdf:about="">
        <dc:format>image/svg+xml</dc:format>
        <dc:type
           rdf:resource="http://purl.org/dc/dcmitype/StillImage" />
        <dc:title></dc:title>
      </cc:Work>
    </rdf:RDF>
  </metadata>
  <g
     inkscape:groupmode="layer"
     id="layer2"
     inkscape:label="iOS Background"
     style="display:inline">
    <rect
       style="fill:#ea9d7e;fill-opacity:1;stroke:none;stroke-width:32;stroke-linecap:round;stroke-miterlimit:4;stroke-dasharray:none;stroke-opacity:1"
       id="rect933"
       width="1024"
       height="1024"
       x="0"
       y="0" />
  </g>
  <g
     inkscape:groupmode="layer"
     id="layer3"
     inkscape:label="Desktop Background"
     style="display:none">
    <rect
       y="0"
       x="0"
       height="1024"
       width="1024"
       id="rect933-1"
       style="fill:#ea9d7e;fill-opacity:1;stroke:none;stroke-width:32;stroke-linecap:round;stroke-miterlimit:4;stroke-dasharray:none;stroke-opacity:1"
       rx="128"
       ry="128" />
  </g>
  <g
     inkscape:label="Logo"
     inkscape:groupmode="layer"
     id="layer1">
    <path
       id="path859"
       style="fill:#1c2833;fill-opacity:1;stroke:none;stroke-width:4;stroke-miterlimit:4;stroke-dasharray:none;stroke-opacity:1"
       d="M 512.00195,368.00781 A 510.80536,437.70333 0 0 0 32,656.00586 510.80536,437.70333 0 0 0 512.00195,944.00781 510.80536,437.70333 0 0 0 992,656.00586 510.80536,437.70333 0 0 0 512.00195,368.00781 Z m -0.002,32 a 256,256 0 0 1 256,256 256,256 0 0 1 -256,256 256,256 0 0 1 -256,-256 256,256 0 0 1 256,-256 z" />
    <path
       style="fill:none;stroke:#1c2833;stroke-width:32;stroke-linecap:round;stroke-linejoin:miter;stroke-miterlimit:4;stroke-dasharray:none;stroke-opacity:1"
       d="m 466.69048,432.9115 44.44671,222.23356 v 0"
       id="path887"
       sodipodi:nodetypes="ccc" />
    <path
       style="fill:none;stroke:#1c2833;stroke-width:32;stroke-linecap:round;stroke-linejoin:miter;stroke-miterlimit:4;stroke-dasharray:none;stroke-opacity:1"
       d="M 511.13719,655.14506 664.1753,628.88109"
       id="path891" />
    <path
       style="fill:none;stroke:#1c2833;stroke-width:32;stroke-linecap:round;stroke-linejoin:miter;stroke-miterlimit:4;stroke-dasharray:none;stroke-opacity:1"
       d="m 381.23684,326.20949 c 0,0 -28.28427,-35.35534 -28.28427,-59.39697 0,-24.04163 33.94113,-45.25483 33.94113,-45.25483 0,0 33.94112,-22.62742 33.94112,-35.35534 0,-12.72792 -7.07106,-31.1127 -29.69848,-45.25483 -22.62742,-14.14214 -42.42641,-36.76956 -42.42641,-36.76956"
       id="path906" />
    <path
       id="path906-1"
       d="m 503.69207,318.02363 c 0,0 -28.28427,-35.35533 -28.28427,-59.39697 0,-24.04163 33.94113,-45.25483 33.94113,-45.25483 0,0 33.94112,-22.62742 33.94112,-35.35534 0,-12.72792 -7.07106,-31.1127 -29.69848,-45.25482 -22.62742,-14.14214 -42.42641,-36.769565 -42.42641,-36.769565"
       style="fill:none;stroke:#1c2833;stroke-width:32;stroke-linecap:round;stroke-linejoin:miter;stroke-miterlimit:4;stroke-dasharray:none;stroke-opacity:1" />
    <path
       id="path906-9"
       d="m 635.69207,320.02363 c 0,0 -28.28426,-35.35533 -28.28426,-59.39697 0,-24.04162 33.94112,-45.25483 33.94112,-45.25483 0,0 33.94114,-22.62742 33.94114,-35.35534 0,-12.72792 -7.07107,-31.1127 -29.69849,-45.25482 -22.62742,-14.14214 -42.42641,-36.769555 -42.42641,-36.769555"
       style="fill:none;stroke:#1c2833;stroke-width:32;stroke-linecap:round;stroke-linejoin:miter;stroke-miterlimit:4;stroke-dasharray:none;stroke-opacity:1" />
  </g>
</svg>
