<?xml version="1.0" encoding="UTF-8" standalone="no"?>
<svg
   xmlns:dc="http://purl.org/dc/elements/1.1/"
   xmlns:cc="http://creativecommons.org/ns#"
   xmlns:rdf="http://www.w3.org/1999/02/22-rdf-syntax-ns#"
   xmlns:svg="http://www.w3.org/2000/svg"
   xmlns="http://www.w3.org/2000/svg"
   xmlns:sodipodi="http://sodipodi.sourceforge.net/DTD/sodipodi-0.dtd"
   xmlns:inkscape="http://www.inkscape.org/namespaces/inkscape"
   height="42"
   viewBox="0 0 21 21"
   width="42"
   fill="#ffffff"
   version="1.1"
   id="svg6"
   sodipodi:docname="info_icon.svg"
   inkscape:version="1.0 (4035a4fb49, 2020-05-01)"
   inkscape:export-filename="C:\Users\ashley\projects\assets\WatchedClock\export\graphics\info_icon.png"
   inkscape:export-xdpi="96"
   inkscape:export-ydpi="96">
  <metadata
     id="metadata12">
    <rdf:RDF>
      <cc:Work
         rdf:about="">
        <dc:format>image/svg+xml</dc:format>
        <dc:type
           rdf:resource="http://purl.org/dc/dcmitype/StillImage" />
        <dc:title></dc:title>
      </cc:Work>
    </rdf:RDF>
  </metadata>
  <defs
     id="defs10" />
  <sodipodi:namedview
     inkscape:document-rotation="0"
     pagecolor="#ffffff"
     bordercolor="#666666"
     borderopacity="1"
     objecttolerance="10"
     gridtolerance="10"
     guidetolerance="10"
     inkscape:pageopacity="0"
     inkscape:pageshadow="2"
     inkscape:window-width="1920"
     inkscape:window-height="1017"
     id="namedview8"
     showgrid="false"
     fit-margin-top="0"
     fit-margin-left="0"
     fit-margin-right="0"
     fit-margin-bottom="0"
     inkscape:zoom="8.8541667"
     inkscape:cx="20.000001"
     inkscape:cy="20"
     inkscape:window-x="1072"
     inkscape:window-y="302"
     inkscape:window-maximized="1"
     inkscape:current-layer="layer2" />
  <g
     style="display:inline"
     inkscape:label="Shadow"
     id="layer2"
     inkscape:groupmode="layer">
    <path
       d="m 10.55,6.75 h 1.9 v 1.9 h -1.9 z m 0,3.8 h 1.9 v 5.7 h -1.9 z M 11.5,2 C 6.256,2 2,6.256 2,11.5 2,16.744 6.256,21 11.5,21 16.744,21 21,16.744 21,11.5 21,6.256 16.744,2 11.5,2 Z m 0,17.1 c -4.1895,0 -7.6,-3.4105 -7.6,-7.6 0,-4.1895 3.4105,-7.6 7.6,-7.6 4.1895,0 7.6,3.4105 7.6,7.6 0,4.1895 -3.4105,7.6 -7.6,7.6 z"
       id="path4"
       style="fill:#1c2833;stroke-width:0.999998;fill-opacity:1" />
  </g>
  <g
     style="display:inline"
     inkscape:label="Logo"
     id="layer1"
     inkscape:groupmode="layer">
    <path
       style="fill:#ffffff;stroke-width:0.999998"
       id="path4-3"
       d="m 8.55,4.75 h 1.9 v 1.9 h -1.9 z m 0,3.8 h 1.9 v 5.7 H 8.55 Z M 9.5,-3.5185184e-8 C 4.2559998,-3.5185184e-8 -1.0555555e-7,4.256 -1.0555555e-7,9.5 -1.0555555e-7,14.744 4.2559998,19 9.5,19 14.744,19 19,14.744 19,9.5 19,4.2559999 14.744,-3.5185186e-8 9.5,-3.5185184e-8 Z M 9.5,17.1 c -4.1895002,0 -7.6000002,-3.4105 -7.6000002,-7.6 0,-4.1895 3.4105,-7.6000001 7.6000002,-7.6000001 4.1895,0 7.6,3.4105001 7.6,7.6000001 0,4.1895 -3.4105,7.6 -7.6,7.6 z" />
  </g>
</svg>
